<svg version="1.2" xmlns="http://www.w3.org/2000/svg" viewBox="0 0 960 1080" width="960" height="1080">
	<style>
		.s0 { fill: #7967ff } 
		.s1 { fill: #231f20 } 
		.s2 { fill: #ffffff } 
		.s3 { fill: #000000 } 
	</style>
	<g id="Layer 1">
		<g id="&lt;Group&gt;">
			<g id="&lt;Group&gt;">
				<path id="&lt;Path&gt;" class="s0" d="m413.13 545.28c-14.23 14.36-33.93 23.26-55.69 23.26-43.24 0-78.42-35.18-78.42-78.41v-50.02c0-43.23 35.18-78.41 78.42-78.41 21.76 0 41.46 8.89 55.69 23.26 2.11-2.63 9.71-11.31 22.11-15.92-19.3-21.09-47.03-34.35-77.8-34.35-58.13 0-105.42 47.3-105.42 105.42v50.02c0 58.12 47.29 105.42 105.42 105.42 30.77 0 58.5-13.26 77.8-34.35-12.4-4.6-20-13.29-22.11-15.92z"/>
			</g>
			<g id="&lt;Group&gt;">
				<path id="&lt;Path&gt;" class="s0" d="m541.27 334.69c-30.23 0-57.53 12.79-76.77 33.25 12.47 3.59 20.56 11.49 23.47 14.71 13.99-13 32.74-20.95 53.3-20.95 43.25 0 78.41 35.18 78.41 78.41v50.02c0 21.62-8.78 41.22-22.99 55.42-14.19 14.21-33.8 22.99-55.42 22.99-20.56 0-39.31-7.95-53.3-20.95-2.91 3.22-11 11.12-23.47 14.71 19.24 20.46 46.54 33.25 76.77 33.25 58.14 0 105.42-47.3 105.42-105.42v-50.02c0-58.12-47.28-105.42-105.42-105.42z"/>
			</g>
			<g id="&lt;Group&gt;">
				<path id="&lt;Path&gt;" class="s0" d="m462.86 490.13v-50.02c0-14.07 3.73-27.28 10.25-38.7-5.84-5.43-13.49-8.76-21.71-9.05q-0.22-0.02-0.44-0.03-1.87-0.03-3.71 0.11c-8.05 0.72-15.5 4.33-21.09 9.95 6.18 11.19 9.69 24.06 9.69 37.72v50.02c0 13.66-3.51 26.53-9.69 37.72 5.59 5.62 13.04 9.23 21.09 9.94q1.84 0.15 3.71 0.12 0.22-0.01 0.44-0.03c8.22-0.29 15.87-3.62 21.71-9.05-6.52-11.42-10.25-24.63-10.25-38.7z"/>
			</g>
			<g id="&lt;Group&gt;">
				<path id="&lt;Compound Path&gt;" fill-rule="evenodd" class="s0" d="m357.44 385.02c30.38 0 55.09 24.72 55.09 55.09v50.02c0 30.37-24.71 55.09-55.09 55.09-30.37 0-55.1-24.72-55.1-55.09v-50.02c0-30.37 24.73-55.09 55.1-55.09zm0 27c-15.48 0-28.09 12.61-28.09 28.09v50.02c0 15.48 12.61 28.09 28.09 28.09 15.49 0 28.08-12.61 28.08-28.09v-50.02c0-15.48-12.59-28.09-28.08-28.09z"/>
			</g>
			<g id="&lt;Group&gt;">
				<path id="&lt;Compound Path&gt;" fill-rule="evenodd" class="s0" d="m486.18 490.13v-50.02c0-30.37 24.72-55.09 55.09-55.09 30.38 0 55.09 24.72 55.09 55.09v50.02c0 30.37-24.71 55.09-55.09 55.09-30.37 0-55.09-24.72-55.09-55.09zm27 0c0 15.48 12.61 28.09 28.09 28.09 15.49 0 28.09-12.61 28.09-28.09v-50.02c0-15.48-12.6-28.09-28.09-28.09-15.48 0-28.09 12.61-28.09 28.09z"/>
			</g>
		</g>
		<g id="&lt;Group&gt;">
			<path id="&lt;Compound Path&gt;" class="s1" d="m217.47 708.81v-83.27h23.49l13.54 30.95 7.83 24.73 7.83-24.73 13.55-30.95h23.49v83.27h-17.77v-31.19l2.48-33.56-9.94 27.72-10.31 22.62h-18.65l-10.31-22.62-10.07-27.72 2.61 33.56v31.19z"/>
			<path id="&lt;Compound Path&gt;" class="s1" d="m322.98 708.81v-83.27h61.15v15.79h-43.38v17.52h36.29v15.78h-36.29v18.4h43.38v15.78z"/>
			<path id="&lt;Compound Path&gt;" class="s1" d="m393.45 708.81v-83.27h17.77v33.31h35.55v-33.31h17.77v83.27h-17.77v-34.18h-35.55v34.18z"/>
			<path id="&lt;Compound Path&gt;" fill-rule="evenodd" class="s1" d="m468.51 708.81l31.2-83.27h22.87l31.19 83.27h-19.51l-6.59-18.52h-33.56l-6.71 18.52zm30.95-33.55h22.74l-6.34-17.9-4.97-17.65-4.97 17.65z"/>
			<path id="&lt;Compound Path&gt;" fill-rule="evenodd" class="s1" d="m553.77 708.81l31.19-83.27h22.87l31.2 83.27h-19.51l-6.59-18.52h-33.56l-6.71 18.52zm30.95-33.55h22.74l-6.34-17.9-4.97-17.65-4.97 17.65z"/>
			<path id="&lt;Compound Path&gt;" class="s1" d="m643 708.81v-83.27h17.78v67.49h41.63v15.78z"/>
		</g>
		<g id="&lt;Group&gt;">
			<path id="&lt;Compound Path&gt;" class="s1" d="m213.08 751.03v-20.45h2.65v20.45z"/>
			<path id="&lt;Compound Path&gt;" class="s1" d="m220.86 751.03v-20.45h2.35l9.13 13 2.11 3.18-0.15-3.12v-13.06h2.65v20.45h-2.38l-9.37-13.31-1.83-2.72 0.15 2.72v13.31z"/>
			<path id="&lt;Compound Path&gt;" class="s1" d="m244.95 751.03v-18.1h-6.47v-2.35h15.57v2.35h-6.47v18.1z"/>
			<path id="&lt;Compound Path&gt;" class="s1" d="m255.6 751.03v-20.45h13.99v2.35h-11.33v6.44h9.34v2.35h-9.34v6.96h11.33v2.35z"/>
			<path id="&lt;Compound Path&gt;" class="s1" d="m272.58 751.03v-20.45h2.65v18.1h10.72v2.35z"/>
			<path id="&lt;Compound Path&gt;" class="s1" d="m287.87 751.03v-20.45h2.66v18.1h10.72v2.35z"/>
			<path id="&lt;Compound Path&gt;" class="s1" d="m303.17 751.03v-20.45h2.65v20.45z"/>
			<path id="&lt;Compound Path&gt;" class="s1" d="m309.52 740.77c0-5.98 3.35-10.5 9.52-10.5 4.28 0 7.36 2.17 8.73 6.05l-2.38 1.55c-0.7-2.9-2.71-5.1-6.32-5.1-4.64 0-6.75 3.33-6.75 8 0 4.68 2.05 8 6.48 8 3.94 0 5.49-2.19 6.26-5.64h-6.26v-2.36h9.04v10.26h-1.65l-0.83-7.9c-0.15 4.54-2.78 8.15-7.48 8.15-5.46 0-8.36-4.31-8.36-10.51z"/>
			<path id="&lt;Compound Path&gt;" class="s1" d="m332.08 751.03v-20.45h13.98v2.35h-11.33v6.44h9.35v2.35h-9.35v6.96h11.33v2.35z"/>
			<path id="&lt;Compound Path&gt;" class="s1" d="m349.05 751.03v-20.45h2.35l9.13 13 2.11 3.18-0.16-3.12v-13.06h2.66v20.45h-2.38l-9.37-13.31-1.84-2.72 0.16 2.72v13.31z"/>
			<path id="&lt;Compound Path&gt;" class="s1" d="m368.83 740.77c0-5.89 3.39-10.5 9.59-10.5 4.58 0 7.66 2.44 8.98 6.66l-2.39 1.55c-0.67-3.42-2.68-5.71-6.56-5.71-4.67 0-6.81 3.33-6.81 8 0 4.68 2.14 8 6.81 8 3.88 0 5.89-2.29 6.56-5.71l2.39 1.56c-1.32 4.21-4.4 6.66-8.98 6.66-6.2 0-9.59-4.61-9.59-10.51z"/>
			<path id="&lt;Compound Path&gt;" class="s1" d="m390.69 751.03v-20.45h13.98v2.35h-11.32v6.44h9.34v2.35h-9.34v6.96h11.32v2.35z"/>
			<path id="&lt;Compound Path&gt;" fill-rule="evenodd" class="s1" d="m414.96 751.03v-20.45h8.64c3.91 0 5.99 2.1 5.99 5.22 0 2.2-1.44 4.18-4.86 4.55 4.28 0.45 5.77 2.56 5.77 5.19 0 3.48-2.62 5.49-7.05 5.49zm2.65-18.1v6.41h5.2c2.35 0 4.03-0.73 4.03-3.21 0-2.44-1.71-3.2-4.16-3.2zm0 8.79v6.96h5.41c3.23 0 4.73-1.04 4.73-3.48 0-2.47-1.98-3.48-4.64-3.48z"/>
			<path id="&lt;Compound Path&gt;" class="s1" d="m434.35 751.03v-20.45h13.98v2.35h-11.33v6.44h9.35v2.35h-9.35v6.96h11.33v2.35z"/>
			<path id="&lt;Compound Path&gt;" class="s1" d="m456.39 751.03v-7.66l-7.64-12.79h3.27l3.48 6.16 2.2 4.58 2.29-4.52 3.7-6.22h2.99l-7.64 12.73v7.72z"/>
			<path id="&lt;Compound Path&gt;" fill-rule="evenodd" class="s1" d="m466.49 740.77c0-5.89 4-10.5 9.9-10.5 5.92 0 9.89 4.61 9.89 10.5 0 5.96-3.97 10.57-9.89 10.57-5.9 0-9.9-4.61-9.9-10.57zm17.04 0c0-4.64-2.44-8-7.11-8-4.68 0-7.12 3.36-7.12 8 0 4.71 2.44 8.03 7.12 8.03 4.67 0 7.11-3.32 7.11-8.03z"/>
			<path id="&lt;Compound Path&gt;" class="s1" d="m490 751.03v-20.45h2.35l9.13 13 2.11 3.18-0.16-3.12v-13.06h2.66v20.45h-2.38l-9.38-13.31-1.83-2.72 0.16 2.72v13.31z"/>
			<path id="&lt;Compound Path&gt;" fill-rule="evenodd" class="s1" d="m511.22 751.03v-20.45h7.23c6.45 0 9.65 3.75 9.65 10.22 0 6.48-3.2 10.23-9.65 10.23zm2.66-18.1v15.75h4.15c4.64 0 7.33-2.04 7.33-7.88 0-5.83-2.69-7.87-7.33-7.87z"/>
			<path id="&lt;Compound Path&gt;" class="s1" d="m538.66 751.03v-20.45h2.66v20.45z"/>
			<path id="&lt;Compound Path&gt;" class="s1" d="m546.44 751.03v-20.45h2.97l5.28 10.13 2.08 4.49 2.04-4.49 5.31-10.13h2.96v20.45h-2.65v-11.29l0.27-5.53-2.26 5.07-4.39 8.33h-2.6l-4.39-8.33-2.29-5.07 0.33 5.53v11.29z"/>
			<path id="&lt;Compound Path&gt;" fill-rule="evenodd" class="s1" d="m572.24 751.03v-20.45h8.18c4.03 0 7.21 2.22 7.21 6.93 0 4.36-3.18 6.59-7.21 6.59h-5.52v6.93zm2.65-18.1v8.82h5.1c2.48 0 4.89-0.92 4.89-4.24 0-3.67-2.41-4.58-4.89-4.58z"/>
			<path id="&lt;Compound Path&gt;" fill-rule="evenodd" class="s1" d="m589.83 740.77c0-5.89 4-10.5 9.89-10.5 5.92 0 9.89 4.61 9.89 10.5 0 5.96-3.97 10.57-9.89 10.57-5.89 0-9.89-4.61-9.89-10.57zm17.03 0c0-4.64-2.44-8-7.11-8-4.67 0-7.12 3.36-7.12 8 0 4.71 2.45 8.03 7.12 8.03 4.67 0 7.11-3.32 7.11-8.03z"/>
			<path id="&lt;Compound Path&gt;" class="s1" d="m612.29 746.09l2.02-1.77c0.95 3.32 4.12 4.51 6.69 4.51 2.29 0 4.21-0.88 4.21-3.11 0-2.35-1.8-2.93-4.52-3.57l-1.92-0.43c-2.72-0.61-5.8-1.83-5.8-5.68 0-3.72 3.23-5.74 6.8-5.74 3.7 0 6.63 1.62 7.88 4.67l-2.23 1.77c-0.97-2.77-3.05-3.9-5.71-3.9-2.26 0-3.94 1.13-3.94 3.02 0 2.04 1.5 2.81 3.85 3.39l2.23 0.55c2.9 0.7 6.08 1.83 6.08 5.86 0 3.54-2.96 5.68-6.93 5.68-3.85 0-7.36-1.47-8.71-5.25z"/>
			<path id="&lt;Compound Path&gt;" class="s1" d="m630.73 746.09l2.02-1.77c0.95 3.32 4.12 4.51 6.69 4.51 2.29 0 4.21-0.88 4.21-3.11 0-2.35-1.8-2.93-4.52-3.57l-1.92-0.43c-2.72-0.61-5.8-1.83-5.8-5.68 0-3.72 3.23-5.74 6.8-5.74 3.7 0 6.63 1.62 7.88 4.67l-2.23 1.77c-0.97-2.77-3.05-3.9-5.71-3.9-2.26 0-3.94 1.13-3.94 3.02 0 2.04 1.5 2.81 3.85 3.39l2.23 0.55c2.9 0.7 6.08 1.83 6.08 5.86 0 3.54-2.97 5.68-6.93 5.68-3.85 0-7.36-1.47-8.71-5.25z"/>
			<path id="&lt;Compound Path&gt;" class="s1" d="m650 751.03v-20.45h2.65v20.45z"/>
			<path id="&lt;Compound Path&gt;" fill-rule="evenodd" class="s1" d="m657.78 751.03v-20.45h8.64c3.91 0 5.99 2.1 5.99 5.22 0 2.2-1.44 4.18-4.86 4.55 4.28 0.45 5.77 2.56 5.77 5.19 0 3.48-2.62 5.49-7.05 5.49zm2.66-18.1v6.41h5.19c2.35 0 4.03-0.73 4.03-3.21 0-2.44-1.71-3.2-4.15-3.2zm0 8.79v6.96h5.4c3.24 0 4.73-1.04 4.73-3.48 0-2.47-1.98-3.48-4.64-3.48z"/>
			<path id="&lt;Compound Path&gt;" class="s1" d="m677.17 751.03v-20.45h2.65v18.1h10.72v2.35z"/>
			<path id="&lt;Compound Path&gt;" class="s1" d="m692.46 751.03v-20.45h13.99v2.35h-11.33v6.44h9.34v2.35h-9.34v6.96h11.33v2.35z"/>
		</g>
		<g id="&lt;Group&gt;">
			<path id="&lt;Compound Path&gt;" class="s1" d="m654.68 602.69l-8.88-23.01-8.48 3.27-2.07-5.38 23.01-8.88 2.07 5.38-8.47 3.27 8.88 23.01z"/>
			<path id="&lt;Compound Path&gt;" class="s1" d="m669.07 597.35l-2.67-30.31 22.25-1.96 0.51 5.74-15.79 1.4 0.57 6.37 13.2-1.16 0.51 5.74-13.21 1.17 0.59 6.7 15.79-1.4 0.51 5.75z"/>
			<path id="&lt;Compound Path&gt;" class="s1" d="m694.13 580.08c1.9-8.55 8.84-14.03 18.15-11.96 6.43 1.42 10.32 5.69 11.42 11.42l-6.38 3.14c-0.05-3.92-1.91-7.5-6.43-8.5-5.19-1.15-8.73 2.01-9.93 7.42-1.21 5.41 0.66 9.78 5.85 10.93 4.52 1 7.71-1.45 9.43-4.97l4.44 5.54c-3.42 4.73-8.75 6.94-15.18 5.51-9.31-2.07-13.27-9.97-11.37-18.53z"/>
			<path id="&lt;Compound Path&gt;" class="s1" d="m719.37 601.71l16.29-25.69 5.49 3.48-6.52 10.28 10.97 6.95 6.51-10.27 5.49 3.47-16.3 25.69-5.48-3.47 6.69-10.55-10.97-6.95-6.69 10.54z"/>
			<path id="&lt;Compound Path&gt;" fill-rule="evenodd" class="s1" d="m747.59 621.17l31.86-6.4 4.41 7.09-19.8 25.76-3.77-6.05 4.47-5.62-6.48-10.41-7.04 1.49zm16.38 3.12l4.4 7.06 4.32-5.42 4.52-4.96-6.44 1.87z"/>
			<path id="&lt;Compound Path&gt;" class="s1" d="m762.69 648.04l28.82-9.77 2.08 6.15-28.82 9.77z"/>
		</g>
		<g id="&lt;Group&gt;">
			<g id="&lt;Group&gt;">
				<path id="&lt;Compound Path&gt;" fill-rule="evenodd" class="s1" d="m718.53 507.48v-19.09h8.32c3.73 0 6.5 2.05 6.5 5.87 0 3.05-2.08 4.99-5.02 5.38 0.89 0.29 1.6 0.89 2.2 1.94l3.42 5.9h-2.91l-3.36-5.87c-0.72-1.28-1.74-1.74-3.62-1.74h-3.05v7.61zm2.48-16.9v7.21h5.44c2.28 0 4.33-0.82 4.33-3.53 0-2.85-2.05-3.68-4.33-3.68z"/>
			</g>
			<g id="&lt;Group&gt;">
				<path id="&lt;Compound Path&gt;" fill-rule="evenodd" class="s1" d="m725.44 516.66c-9.86 0-17.89-8.02-17.89-17.89 0-9.86 8.03-17.89 17.89-17.89 9.86 0 17.89 8.03 17.89 17.89 0 9.87-8.03 17.89-17.89 17.89zm0-34.78c-9.31 0-16.89 7.58-16.89 16.89 0 9.32 7.58 16.89 16.89 16.89 9.31 0 16.89-7.57 16.89-16.89 0-9.31-7.58-16.89-16.89-16.89z"/>
			</g>
		</g>
		<g id="&lt;Group&gt;">
			<path id="&lt;Path&gt;" class="s2" d="m960-0.5v1080"/>
			<path id="&lt;Path&gt;" class="s3" d="m960.5 1079.5h-1v-1080h1z"/>
		</g>
		<g id="&lt;Group&gt;">
			<g id="&lt;Group&gt;">
				<path id="&lt;Path&gt;" class="s0" d="m1230.81 631.03c-11.24 11.35-26.8 18.37-43.99 18.37-34.14 0-61.92-27.78-61.92-61.92v-39.5c0-34.15 27.78-61.93 61.92-61.93 17.19 0 32.75 7.03 43.99 18.37 1.66-2.07 7.66-8.93 17.46-12.57-15.24-16.66-37.14-27.13-61.45-27.13-45.9 0-83.25 37.35-83.25 83.26v39.5c0 45.9 37.35 83.25 83.25 83.25 24.31 0 46.21-10.47 61.45-27.12-9.8-3.64-15.8-10.5-17.46-12.58z"/>
			</g>
			<g id="&lt;Group&gt;">
				<path id="&lt;Path&gt;" class="s0" d="m1332 464.72c-23.87 0-45.43 10.1-60.62 26.26 9.85 2.84 16.23 9.08 18.53 11.62 11.05-10.27 25.86-16.55 42.09-16.55 34.16 0 61.93 27.78 61.93 61.93v39.5c0 17.07-6.94 32.55-18.16 43.77-11.2 11.21-26.7 18.15-43.77 18.15-16.23 0-31.04-6.28-42.09-16.54-2.3 2.54-8.68 8.78-18.53 11.61 15.19 16.16 36.75 26.26 60.62 26.26 45.91 0 83.26-37.35 83.26-83.25v-39.5c0-45.91-37.35-83.26-83.26-83.26z"/>
			</g>
			<g id="&lt;Group&gt;">
				<path id="&lt;Path&gt;" class="s0" d="m1270.08 587.48v-39.5c0-11.11 2.94-21.54 8.09-30.57-4.6-4.28-10.65-6.91-17.14-7.14q-0.17-0.02-0.35-0.02-1.47-0.03-2.92 0.08c-6.36 0.57-12.25 3.42-16.66 7.86 4.88 8.84 7.65 19 7.65 29.79v39.5c0 10.79-2.77 20.95-7.65 29.79 4.41 4.44 10.3 7.29 16.66 7.85q1.45 0.12 2.92 0.09 0.18 0 0.35-0.02c6.49-0.23 12.54-2.86 17.14-7.15-5.15-9.02-8.09-19.45-8.09-30.56z"/>
			</g>
			<g id="&lt;Group&gt;">
				<path id="&lt;Compound Path&gt;" fill-rule="evenodd" class="s0" d="m1186.82 504.47c24 0 43.51 19.52 43.51 43.51v39.5c0 23.98-19.51 43.51-43.51 43.51-23.98 0-43.5-19.53-43.5-43.51v-39.5c0-23.99 19.52-43.51 43.5-43.51zm0 21.33c-12.22 0-22.18 9.95-22.18 22.18v39.5c0 12.22 9.96 22.18 22.18 22.18 12.24 0 22.18-9.96 22.18-22.18v-39.5c0-12.23-9.94-22.18-22.18-22.18z"/>
			</g>
			<g id="&lt;Group&gt;">
				<path id="&lt;Compound Path&gt;" fill-rule="evenodd" class="s0" d="m1288.5 587.48v-39.5c0-23.99 19.52-43.51 43.5-43.51 24 0 43.51 19.52 43.51 43.51v39.5c0 23.98-19.51 43.51-43.51 43.51-23.98 0-43.5-19.53-43.5-43.51zm21.32 0c0 12.22 9.96 22.18 22.18 22.18 12.24 0 22.18-9.96 22.18-22.18v-39.5c0-12.23-9.94-22.18-22.18-22.18-12.22 0-22.18 9.95-22.18 22.18z"/>
			</g>
		</g>
		<g id="&lt;Group&gt;">
			<path id="&lt;Compound Path&gt;" class="s0" d="m1441.68 534.38v-62.67h17.68l10.19 23.29 5.9 18.62 5.89-18.62 10.19-23.29h17.68v62.67h-13.37v-23.47l1.87-25.26-7.49 20.86-7.76 17.02h-14.03l-7.76-17.02-7.58-20.86 1.96 25.26v23.47z"/>
			<path id="&lt;Compound Path&gt;" class="s0" d="m1521.09 534.38v-62.67h46.02v11.88h-32.65v13.19h27.31v11.88h-27.31v13.84h32.65v11.88z"/>
			<path id="&lt;Compound Path&gt;" class="s0" d="m1574.12 534.38v-62.67h13.38v25.07h26.75v-25.07h13.37v62.67h-13.37v-25.72h-26.75v25.72z"/>
			<path id="&lt;Compound Path&gt;" fill-rule="evenodd" class="s0" d="m1630.61 534.38l23.48-62.67h17.21l23.48 62.67h-14.69l-4.95-13.93h-25.26l-5.05 13.93zm23.29-25.25h17.12l-4.77-13.47-3.74-13.28-3.75 13.28z"/>
			<path id="&lt;Compound Path&gt;" fill-rule="evenodd" class="s0" d="m1694.78 534.38l23.47-62.67h17.21l23.48 62.67h-14.68l-4.96-13.93h-25.26l-5.05 13.93zm23.29-25.25h17.12l-4.77-13.47-3.74-13.28-3.74 13.28z"/>
			<path id="&lt;Compound Path&gt;" class="s0" d="m1761.93 534.38v-62.67h13.38v50.79h31.33v11.88z"/>
			<path id="&lt;Compound Path&gt;" class="s1" d="m1456.64 611.11v-50.79h-18.7v-11.87h50.79v11.87h-18.71v50.79z"/>
			<path id="&lt;Compound Path&gt;" class="s1" d="m1492.47 611.11v-62.66h46.02v11.87h-32.65v13.19h27.32v11.88h-27.32v13.85h32.65v11.87z"/>
			<path id="&lt;Compound Path&gt;" class="s1" d="m1541.76 579.69c0-18.06 11.5-32.18 31.14-32.18 13.57 0 23.3 6.83 28.07 17.86l-11.42 9.17c-1.87-7.86-7.2-14.22-16.74-14.22-10.94 0-16.65 7.95-16.65 19.37 0 11.41 5.71 19.36 16.65 19.36 9.54 0 14.87-6.36 16.74-14.22l11.42 9.17c-4.77 11.03-14.5 17.86-28.07 17.86-19.64 0-31.14-14.12-31.14-32.17z"/>
			<path id="&lt;Compound Path&gt;" class="s1" d="m1607.13 611.11v-62.66h13.38v25.06h26.75v-25.06h13.38v62.66h-13.38v-25.72h-26.75v25.72z"/>
			<path id="&lt;Compound Path&gt;" fill-rule="evenodd" class="s1" d="m1684.02 611.11l23.48-62.66h17.21l23.47 62.66h-14.68l-4.96-13.93h-25.25l-5.05 13.93zm23.29-25.25h17.11l-4.77-13.47-3.74-13.28-3.74 13.28z"/>
			<path id="&lt;Compound Path&gt;" class="s1" d="m1751.17 611.11v-62.66h13.38v62.66z"/>
		</g>
		<g id="&lt;Group&gt;">
			<g id="&lt;Group&gt;">
				<path id="&lt;Compound Path&gt;" fill-rule="evenodd" class="s1" d="m1804.33 470.84v-13.42h5.85c2.63 0 4.57 1.44 4.57 4.13 0 2.14-1.46 3.5-3.52 3.78 0.62 0.2 1.12 0.62 1.54 1.37l2.4 4.14h-2.04l-2.36-4.12c-0.51-0.91-1.23-1.23-2.55-1.23h-2.14v5.35zm1.74-11.88v5.07h3.83c1.6 0 3.04-0.58 3.04-2.48 0-2.01-1.44-2.59-3.04-2.59z"/>
			</g>
			<g id="&lt;Group&gt;">
				<path id="&lt;Compound Path&gt;" fill-rule="evenodd" class="s1" d="m1809.19 477.44c-7.01 0-12.72-5.7-12.72-12.72 0-7.01 5.71-12.71 12.72-12.71 7.01 0 12.72 5.7 12.72 12.71 0 7.02-5.71 12.72-12.72 12.72zm0-24.43c-6.46 0-11.72 5.25-11.72 11.71 0 6.47 5.26 11.72 11.72 11.72 6.46 0 11.72-5.25 11.72-11.72 0-6.46-5.26-11.71-11.72-11.71z"/>
			</g>
		</g>
		<g id="&lt;Group&gt;">
			<path id="&lt;Path&gt;" class="s0" d="m1768 640.83h-320.26v-19.66h320.26z"/>
		</g>
		<g id="&lt;Group&gt;">
			<path id="&lt;Compound Path&gt;" class="s2" d="m1455.17 637.63v-12.75h1.65v12.75z"/>
			<path id="&lt;Compound Path&gt;" class="s2" d="m1460.02 637.63v-12.75h1.47l5.69 8.11 1.31 1.98-0.09-1.94v-8.15h1.65v12.75h-1.48l-5.85-8.3-1.14-1.69 0.1 1.69v8.3z"/>
			<path id="&lt;Compound Path&gt;" class="s2" d="m1475.04 637.63v-11.29h-4.04v-1.46h9.72v1.46h-4.04v11.29z"/>
			<path id="&lt;Compound Path&gt;" class="s2" d="m1481.68 637.63v-12.75h8.73v1.46h-7.07v4.02h5.83v1.47h-5.83v4.34h7.07v1.46z"/>
			<path id="&lt;Compound Path&gt;" class="s2" d="m1492.27 637.63v-12.75h1.66v11.29h6.68v1.46z"/>
			<path id="&lt;Compound Path&gt;" class="s2" d="m1501.81 637.63v-12.75h1.65v11.29h6.69v1.46z"/>
			<path id="&lt;Compound Path&gt;" class="s2" d="m1511.34 637.63v-12.75h1.66v12.75z"/>
			<path id="&lt;Compound Path&gt;" class="s2" d="m1515.3 631.24c0-3.74 2.1-6.55 5.95-6.55 2.66 0 4.59 1.35 5.44 3.77l-1.48 0.97c-0.44-1.81-1.7-3.18-3.94-3.18-2.9 0-4.21 2.07-4.21 4.99 0 2.91 1.27 4.99 4.03 4.99 2.46 0 3.43-1.38 3.91-3.53h-3.91v-1.46h5.64v6.39h-1.03l-0.51-4.93c-0.1 2.84-1.73 5.09-4.67 5.09-3.41 0-5.22-2.69-5.22-6.55z"/>
			<path id="&lt;Compound Path&gt;" class="s2" d="m1529.37 637.63v-12.75h8.72v1.46h-7.06v4.02h5.83v1.47h-5.83v4.34h7.06v1.46z"/>
			<path id="&lt;Compound Path&gt;" class="s2" d="m1539.96 637.63v-12.75h1.46l5.7 8.11 1.31 1.98-0.09-1.94v-8.15h1.65v12.75h-1.48l-5.85-8.3-1.14-1.69 0.1 1.69v8.3z"/>
			<path id="&lt;Compound Path&gt;" class="s2" d="m1552.29 631.24c0-3.68 2.12-6.55 5.98-6.55 2.86 0 4.78 1.52 5.6 4.15l-1.48 0.97c-0.42-2.13-1.68-3.56-4.1-3.56-2.91 0-4.24 2.07-4.24 4.99 0 2.91 1.33 4.99 4.24 4.99 2.42 0 3.68-1.43 4.1-3.57l1.48 0.98c-0.82 2.62-2.74 4.15-5.6 4.15-3.86 0-5.98-2.88-5.98-6.55z"/>
			<path id="&lt;Compound Path&gt;" class="s2" d="m1565.93 637.63v-12.75h8.72v1.46h-7.07v4.02h5.83v1.47h-5.83v4.34h7.07v1.46z"/>
			<path id="&lt;Compound Path&gt;" fill-rule="evenodd" class="s2" d="m1581.06 637.63v-12.75h5.39c2.44 0 3.73 1.31 3.73 3.25 0 1.37-0.89 2.61-3.03 2.84 2.67 0.29 3.6 1.6 3.6 3.24 0 2.17-1.63 3.42-4.4 3.42zm1.66-11.29v4h3.24c1.46 0 2.51-0.46 2.51-2 0-1.52-1.06-2-2.59-2zm0 5.49v4.34h3.37c2.02 0 2.96-0.65 2.96-2.17 0-1.54-1.24-2.17-2.9-2.17z"/>
			<path id="&lt;Compound Path&gt;" class="s2" d="m1593.15 637.63v-12.75h8.72v1.46h-7.06v4.02h5.82v1.47h-5.82v4.34h7.06v1.46z"/>
			<path id="&lt;Compound Path&gt;" class="s2" d="m1606.9 637.63v-4.77l-4.77-7.98h2.04l2.17 3.84 1.37 2.86 1.43-2.82 2.31-3.88h1.86l-4.76 7.94v4.81z"/>
			<path id="&lt;Compound Path&gt;" fill-rule="evenodd" class="s2" d="m1613.2 631.24c0-3.68 2.49-6.55 6.17-6.55 3.69 0 6.17 2.87 6.17 6.55 0 3.71-2.48 6.59-6.17 6.59-3.68 0-6.17-2.88-6.17-6.59zm10.62 0c0-2.9-1.52-4.99-4.44-4.99-2.91 0-4.43 2.09-4.43 4.99 0 2.93 1.52 5 4.43 5 2.92 0 4.44-2.07 4.44-5z"/>
			<path id="&lt;Compound Path&gt;" class="s2" d="m1627.86 637.63v-12.75h1.46l5.7 8.11 1.31 1.98-0.1-1.94v-8.15h1.66v12.75h-1.48l-5.85-8.3-1.14-1.69 0.09 1.69v8.3z"/>
			<path id="&lt;Compound Path&gt;" fill-rule="evenodd" class="s2" d="m1641.09 637.63v-12.75h4.51c4.02 0 6.02 2.34 6.02 6.38 0 4.03-2 6.37-6.02 6.37zm1.66-11.29v9.83h2.59c2.89 0 4.57-1.28 4.57-4.91 0-3.64-1.68-4.92-4.57-4.92z"/>
			<path id="&lt;Compound Path&gt;" class="s2" d="m1658.2 637.63v-12.75h1.66v12.75z"/>
			<path id="&lt;Compound Path&gt;" class="s2" d="m1663.05 637.63v-12.75h1.85l3.3 6.32 1.29 2.8 1.28-2.8 3.31-6.32h1.85v12.75h-1.66v-7.04l0.17-3.45-1.41 3.16-2.74 5.2h-1.62l-2.74-5.2-1.43-3.16 0.21 3.45v7.04z"/>
			<path id="&lt;Compound Path&gt;" fill-rule="evenodd" class="s2" d="m1679.14 637.63v-12.75h5.11c2.51 0 4.49 1.39 4.49 4.32 0 2.72-1.98 4.11-4.49 4.11h-3.45v4.32zm1.66-11.29v5.51h3.18c1.54 0 3.04-0.58 3.04-2.65 0-2.29-1.5-2.86-3.04-2.86z"/>
			<path id="&lt;Compound Path&gt;" fill-rule="evenodd" class="s2" d="m1690.11 631.24c0-3.68 2.49-6.55 6.17-6.55 3.69 0 6.17 2.87 6.17 6.55 0 3.71-2.48 6.59-6.17 6.59-3.68 0-6.17-2.88-6.17-6.59zm10.62 0c0-2.9-1.52-4.99-4.43-4.99-2.92 0-4.44 2.09-4.44 4.99 0 2.93 1.52 5 4.44 5 2.91 0 4.43-2.07 4.43-5z"/>
			<path id="&lt;Compound Path&gt;" class="s2" d="m1704.12 634.55l1.26-1.1c0.59 2.07 2.57 2.81 4.17 2.81 1.42 0 2.62-0.55 2.62-1.94 0-1.46-1.12-1.83-2.81-2.23l-1.2-0.26c-1.7-0.38-3.62-1.15-3.62-3.54 0-2.33 2.02-3.58 4.25-3.58 2.3 0 4.13 1 4.91 2.91l-1.39 1.1c-0.61-1.73-1.91-2.43-3.56-2.43-1.41 0-2.46 0.7-2.46 1.88 0 1.28 0.93 1.75 2.4 2.11l1.39 0.35c1.81 0.43 3.79 1.14 3.79 3.65 0 2.21-1.85 3.55-4.32 3.55-2.4 0-4.59-0.92-5.43-3.28z"/>
			<path id="&lt;Compound Path&gt;" class="s2" d="m1715.62 634.55l1.26-1.1c0.58 2.07 2.57 2.81 4.16 2.81 1.43 0 2.63-0.55 2.63-1.94 0-1.46-1.12-1.83-2.81-2.23l-1.2-0.26c-1.7-0.38-3.62-1.15-3.62-3.54 0-2.33 2.02-3.58 4.24-3.58 2.31 0 4.14 1 4.92 2.91l-1.39 1.1c-0.61-1.73-1.91-2.43-3.56-2.43-1.41 0-2.46 0.7-2.46 1.88 0 1.28 0.93 1.75 2.4 2.11l1.39 0.35c1.81 0.43 3.79 1.14 3.79 3.65 0 2.21-1.85 3.55-4.33 3.55-2.39 0-4.58-0.92-5.42-3.28z"/>
			<path id="&lt;Compound Path&gt;" class="s2" d="m1727.63 637.63v-12.75h1.66v12.75z"/>
			<path id="&lt;Compound Path&gt;" fill-rule="evenodd" class="s2" d="m1732.49 637.63v-12.75h5.38c2.44 0 3.74 1.31 3.74 3.25 0 1.37-0.9 2.61-3.03 2.84 2.67 0.29 3.6 1.6 3.6 3.24 0 2.17-1.64 3.42-4.4 3.42zm1.66-11.29v4h3.23c1.47 0 2.52-0.46 2.52-2 0-1.52-1.07-2-2.59-2zm0 5.49v4.34h3.37c2.02 0 2.95-0.65 2.95-2.17 0-1.54-1.24-2.17-2.9-2.17z"/>
			<path id="&lt;Compound Path&gt;" class="s2" d="m1744.57 637.63v-12.75h1.66v11.29h6.69v1.46z"/>
			<path id="&lt;Compound Path&gt;" class="s2" d="m1754.11 637.63v-12.75h8.72v1.46h-7.06v4.02h5.83v1.47h-5.83v4.34h7.06v1.46z"/>
		</g>
	</g>
</svg>